{
  "title": "Junooniyat (2016) Tiny 720p x264 DvDRip AAC 5.1 Esub -DDR",
  "uid": 15645336,
  "size": 989595604,
  "categoryP": "video",
  "categoryS": "hd___movies",
  "magnet": "?xt=urn:btih:6bcc41798f0bd1fcf83d8b148b53223f262910b7&amp;dn=Junooniyat+%282016%29+Tiny+720p+x264+DvDRip+AAC+5.1+Esub+-DDR&amp;tr=udp%3A%2F%2Ftracker.leechers-paradise.org%3A6969&amp;tr=udp%3A%2F%2Fzer0day.ch%3A1337&amp;tr=udp%3A%2F%2Fopen.demonii.com%3A1337&amp;tr=udp%3A%2F%2Ftracker.coppersurfer.tk%3A6969&amp;tr=udp%3A%2F%2Fexodus.desync.com%3A6969",
  "seeders": 56,
  "leechers": 32,
  "uploader": "SaM",
  "files": 3,
  "time": 1472048819,
  "description": "** Junooniyat **\r\n\r\n** 2016**\r\n\r\n** Tiny 720p / DvDRip / x264 / AAC 5.1 **\r\n\r\n** English Subtitle(s) **\r\n\r\n\r\n\r\n[ SCREENS ]\r\n \nhttp://extraimago.com/image/wELX \nhttp://extraimago.com/image/wELP \nhttp://extraimago.com/image/wELG \nhttp://extraimago.com/image/wELr \nhttp://extraimago.com/image/wELp \nhttp://extraimago.com/image/wELY \nhttp://extraimago.com/image/wELC \nhttp://extraimago.com/image/wELB \nhttp://extraimago.com/image/wEL4 \nhttp://extraimago.com/image/wELe \nhttp://extraimago.com/image/wELZ \nhttp://extraimago.com/image/wELK \nhttp://extraimago.com/image/wELJ \nhttp://extraimago.com/image/wEL0\r\n\r\n[ Info ]\r\nSource : DVD9 @ DDR\r\nFormat : Matroska\r\nFile size : 939 MiB\r\nDuration : 2h 1mn\r\nOverall bit rate : 1 077 Kbps\r\n\r\nVideo\r\nFormat : AVC\r\nFormat/Info : Advanced Video Codec\r\nFormat profile :   \r\nFormat settings, CABAC : Yes\r\nFormat settings, ReFrames : 12 frames\r\nCodec ID : V_MPEG4/ISO/AVC\r\nDuration : 2h 1mn\r\nBit rate : 883 Kbps\r\nWidth : 1 280 pixels\r\nHeight : 544 pixels\r\nDisplay aspect ratio : 2.35:1\r\nFrame rate mode : Constant\r\nFrame rate : 23.976 (24000/1001) fps\r\ncolor space : YUV\r\nChroma subsampling : 4:2:0\r\nBit depth : 8 bits\r\nScan type : Progressive\r\nBits/(Pixel*Frame) : 0.053\r\nStream size : 770 MiB (82%)\r\nLanguage : English\r\nDefault : Yes\r\nForced : No\r\ncolor range : Limited\r\ncolor primaries : BT.709\r\nTransfer characteristics : BT.709\r\nMatrix coefficients : BT.709\r\n\r\nAudio\r\nFormat : AAC\r\nFormat/Info : Advanced Audio Codec\r\nFormat profile : LC\r\nCodec ID : A_AAC\r\nDuration : 2h 2mn\r\nBit rate : 192 Kbps\r\nChannel(s) : 6 channels\r\nChannel positions : Front: L C R, Side: L R, LFE\r\nSampling rate : 48.0 KHz\r\nFrame rate : 46.875 fps (1024 spf)\r\nCompression mode : Lossy\r\nDelay relative to video : 1ms\r\nStream size : 167 MiB (18%)\r\nLanguage : Hindi\r\nDefault : Yes\r\nForced : No\r\n\r\nChapters = YES",
  "parsed": {
    "xt": "urn:btih:6bcc41798f0bd1fcf83d8b148b53223f262910b7",
    "dn": "Junooniyat (2016) Tiny 720p x264 DvDRip AAC 5.1 Esub -DDR",
    "tr": [
      "udp://exodus.desync.com:6969",
      "udp://open.demonii.com:1337",
      "udp://tracker.coppersurfer.tk:6969",
      "udp://tracker.leechers-paradise.org:6969",
      "udp://zer0day.ch:1337"
    ],
    "infoHash": "6bcc41798f0bd1fcf83d8b148b53223f262910b7",
    "infoHashBuffer": {
      "type": "Buffer",
      "data": [
        107,
        204,
        65,
        121,
        143,
        11,
        209,
        252,
        248,
        61,
        139,
        20,
        139,
        83,
        34,
        63,
        38,
        41,
        16,
        183
      ]
    },
    "name": "Junooniyat (2016) Tiny 720p x264 DvDRip AAC 5.1 Esub -DDR",
    "announce": [
      "udp://exodus.desync.com:6969",
      "udp://open.demonii.com:1337",
      "udp://tracker.coppersurfer.tk:6969",
      "udp://tracker.leechers-paradise.org:6969",
      "udp://zer0day.ch:1337"
    ],
    "urlList": []
  },
  "previous": 68,
  "peers": 33,
  "last_updated": "2016-12-27T03:02:55.505Z"
}